<svg width="96" height="100" viewBox="0 0 96 100" fill="none" xmlns="http://www.w3.org/2000/svg">
<g filter="url(#filter0_i_133_473)">
<path d="M51.7381 87.5667C50.5012 86.742 48.9678 86.4932 47.5335 86.8844C45.7628 87.3673 43.869 86.8696 42.5644 85.5787L0.970295 44.4178C0.349415 43.8034 5.68427e-05 42.9662 5.67664e-05 42.0927C5.66433e-05 40.6847 0.901027 39.4347 2.23677 38.9894L2.29515 38.9699C3.46183 38.5811 4.74775 38.8613 5.64679 39.7004L9.73836 43.5192C10.598 44.3215 11.8657 44.5049 12.9174 43.979C13.5851 43.6452 14.0928 43.0598 14.3288 42.3517L14.3457 42.301C14.6824 41.291 14.4474 40.1779 13.7313 39.3901L6.39848 31.3241C5.87445 30.7476 5.58409 29.9966 5.58409 29.2176C5.58409 27.7498 6.6035 26.479 8.03629 26.1606L8.10143 26.1461C9.14584 25.914 10.2373 26.2168 11.0129 26.9536L18.1534 33.7371C18.7379 34.2924 19.5444 34.5498 20.3425 34.4358C21.5196 34.2676 22.4385 33.3324 22.586 32.1525L22.6181 31.8956C22.7337 30.9713 22.4097 30.0462 21.7427 29.3959L5.56903 13.6265C4.72991 12.8084 4.4538 11.5716 4.8653 10.4742C5.29765 9.32124 6.39986 8.55741 7.63124 8.55741L8.26834 8.55741C9.23569 8.55741 10.168 8.91938 10.882 9.57212L24.4643 21.9902C25.3563 22.8058 26.7321 22.775 27.5867 21.9204C28.0896 21.4175 28.3264 20.7071 28.2258 20.0031L27.7094 16.3883C27.5492 15.2668 27.9264 14.1354 28.7274 13.3343L28.9189 13.1428C29.4713 12.5904 30.2205 12.2801 31.0016 12.2801C31.715 12.2801 32.4042 12.5391 32.9411 13.0089L34.6657 14.5179C35.3779 15.141 36.3844 15.3003 37.2541 14.9275C38.3231 14.4694 38.9251 13.3251 38.697 12.1846L38.2585 9.99218C38.1914 9.65694 38.1577 9.31589 38.1577 8.97401L38.1577 7.5487C38.1577 6.45577 38.7752 5.45665 39.7527 4.96788C40.5119 4.5883 41.3996 4.56221 42.1798 4.89655L43.2513 5.3558C43.8827 5.62638 44.4566 6.01493 44.9423 6.50063L63.7512 25.3095L86.561 48.1193C87.1398 48.6982 87.4035 49.5209 87.2689 50.3284C87.1146 51.2545 86.4609 52.0194 85.5702 52.3163L84.7368 52.5942C83.5373 52.994 82.2193 52.8022 81.1834 52.0771L79.2471 50.7217C78.5737 50.2503 77.7168 50.1256 76.937 50.3856C75.9884 50.7018 75.3057 51.5346 75.1816 52.5268L75.1189 53.0291C74.9925 54.0398 75.326 55.0539 76.0275 55.7923L82.9622 63.0919C83.4748 63.6316 83.7607 64.3475 83.7607 65.0919C83.7607 66.5563 82.6702 67.7915 81.2171 67.9731L80.9299 68.009C80.3464 68.082 79.754 67.9943 79.2166 67.7555L77.6156 67.0439C76.5255 66.5594 75.2586 66.7027 74.3042 67.4185C74.0946 67.5757 73.8669 67.7074 73.626 67.8106L73.4986 67.8652C71.8272 68.5815 69.8881 68.208 68.6023 66.9222L60.6268 58.9468C59.3558 57.6758 57.1828 58.3026 56.7839 60.0552C56.4161 61.6716 54.5033 62.3704 53.1802 61.3717L50.4641 59.3217C50.0273 58.9921 49.4951 58.8138 48.948 58.8138C47.2429 58.8138 46.0313 60.4737 46.5511 62.0976L46.7721 62.7881C46.9218 63.2558 47.1824 63.6803 47.5317 64.0256L49.7911 66.2592L54.3291 70.4946C55.7573 71.8276 56.0723 73.9718 55.088 75.6593C54.1544 77.2598 54.3851 79.2837 55.655 80.633L59.4013 84.6134C60.3474 85.6187 60.6076 87.0891 60.0638 88.3579L60.039 88.4158C59.7318 89.1326 59.1804 89.7174 58.4828 90.0662C57.4243 90.5954 56.1635 90.5169 55.1789 89.8605L51.7381 87.5667Z" fill="url(#paint0_diamond_133_473)"/>
</g>
<g filter="url(#filter1_i_133_473)">
<rect x="31.212" y="87.6647" width="29.4817" height="6.14814" rx="3.07407" transform="rotate(-134.847 31.212 87.6647)" fill="#7165FF"/>
</g>
<g filter="url(#filter2_i_133_473)">
<rect x="81.7284" y="39.2696" width="29.4817" height="6.14814" rx="3.07407" transform="rotate(-134.847 81.7284 39.2696)" fill="#FF6581"/>
</g>
<g filter="url(#filter3_i_133_473)">
<rect x="91.035" y="88.5953" width="19.9672" height="6.14814" rx="3.07407" transform="rotate(-134.847 91.035 88.5953)" fill="#7165FF"/>
</g>
<rect x="78.9363" y="91.3873" width="33.8624" height="6.14814" rx="3.07407" transform="rotate(-134.847 78.9363 91.3873)" fill="#D9D9D9"/>
<g filter="url(#filter4_i_133_473)">
<rect x="78.9363" y="91.3873" width="33.8624" height="6.14814" rx="3.07407" transform="rotate(-134.847 78.9363 91.3873)" fill="#FF6581"/>
</g>
<g filter="url(#filter5_i_133_473)">
<circle cx="85.1567" cy="93.2487" r="3.72269" transform="rotate(180 85.1567 93.2487)" fill="#7165FF"/>
</g>
<g filter="url(#filter6_i_133_473)">
<circle cx="62.8205" cy="93.2487" r="3.72269" transform="rotate(180 62.8205 93.2487)" fill="#FA878D"/>
</g>
<g filter="url(#filter7_i_133_473)">
<circle cx="59.0978" cy="12.2801" r="3.72269" transform="rotate(180 59.0978 12.2801)" fill="#FA878D"/>
</g>
<path d="M57.9116 23.9955C57.9116 23.9955 53.8164 23.8694 52.7965 21.9802C51.9326 20.38 54.2847 18.7839 53.1799 17.3395C52.0155 15.8173 49.5183 18.1836 48.3152 16.6916C47.1433 15.2384 49.3077 13.6409 48.5866 11.9188C47.4527 9.21068 42.8392 11.5992 41.7053 8.8911C40.9843 7.16903 42.8506 5.76803 41.9767 4.11824C41.0647 2.39632 37.6298 1.66882 37.6298 1.66882" stroke="white" stroke-width="0.5"/>
<path d="M32.8354 76.0468C32.8354 76.0468 36.932 76.1104 37.9806 77.984C38.8688 79.5708 36.5412 81.2026 37.6679 82.6299C38.8554 84.1343 41.3163 81.7302 42.5419 83.2036C43.7359 84.6388 41.5961 86.2692 42.3433 87.98C43.5183 90.6706 48.0948 88.212 49.2699 90.9025C50.0171 92.6134 48.1723 94.0427 49.0712 95.679C50.0094 97.3868 53.455 98.0619 53.455 98.0619" stroke="white" stroke-width="0.5"/>
<path d="M15.3971 53.136C15.0457 53.136 14.7737 53.0397 14.5811 52.847C14.3997 52.643 14.3091 52.3653 14.3091 52.014V42.001C14.3091 41.6383 14.3997 41.3607 14.5811 41.168C14.7737 40.9753 15.0457 40.879 15.3971 40.879C15.7484 40.879 16.0147 40.9753 16.1961 41.168C16.3887 41.3607 16.4851 41.6383 16.4851 42.001V43.013C16.4851 44.6699 17.8282 46.013 19.4851 46.013H19.6561C21.3129 46.013 22.6561 44.6699 22.6561 43.013V42.001C22.6561 41.6383 22.7467 41.3607 22.9281 41.168C23.1207 40.9753 23.3927 40.879 23.7441 40.879C24.0954 40.879 24.3617 40.9753 24.5431 41.168C24.7357 41.3607 24.8321 41.6383 24.8321 42.001V52.014C24.8321 52.3653 24.7357 52.643 24.5431 52.847C24.3617 53.0397 24.0954 53.136 23.7441 53.136C23.3927 53.136 23.1207 53.0397 22.9281 52.847C22.7467 52.643 22.6561 52.3653 22.6561 52.014V50.832C22.6561 49.1751 21.3129 47.832 19.6561 47.832H19.4851C17.8282 47.832 16.4851 49.1751 16.4851 50.832V52.014C16.4851 52.3653 16.3944 52.643 16.2131 52.847C16.0317 53.0397 15.7597 53.136 15.3971 53.136Z" fill="white"/>
<path d="M29.3615 56.196C29.1122 56.196 28.9082 56.128 28.7495 55.992C28.5909 55.8673 28.4945 55.6973 28.4605 55.482C28.4379 55.2667 28.4775 55.04 28.5795 54.802L29.5574 52.6305C29.5986 52.539 29.7355 52.5684 29.7355 52.6687C29.7355 52.7699 29.597 52.7985 29.5569 52.7057L26.6415 45.962C26.5395 45.7127 26.5055 45.4803 26.5395 45.265C26.5735 45.0497 26.6755 44.8797 26.8455 44.755C27.0269 44.619 27.2705 44.551 27.5765 44.551C27.8372 44.551 28.0469 44.6133 28.2055 44.738C28.3642 44.8513 28.5059 45.0723 28.6305 45.401L30.831 50.8941C30.8763 51.0071 30.7931 51.13 30.6714 51.13C30.5493 51.13 30.4661 51.0062 30.5123 50.8931L32.7615 45.384C32.8862 45.0667 33.0335 44.8513 33.2035 44.738C33.3735 44.6133 33.6002 44.551 33.8835 44.551C34.1329 44.551 34.3312 44.619 34.4785 44.755C34.6259 44.8797 34.7165 45.0497 34.7505 45.265C34.7845 45.469 34.7449 45.6957 34.6315 45.945L30.5005 55.38C30.3532 55.6973 30.1945 55.9127 30.0245 56.026C29.8545 56.1393 29.6335 56.196 29.3615 56.196Z" fill="white"/>
<path d="M37.2558 56.196C36.9158 56.196 36.6551 56.1053 36.4738 55.924C36.2924 55.7427 36.2018 55.4763 36.2018 55.125V45.622C36.2018 45.2707 36.2924 45.0043 36.4738 44.823C36.6551 44.6417 36.9101 44.551 37.2388 44.551C37.5788 44.551 37.8394 44.6417 38.0208 44.823C38.2021 45.0043 38.2928 45.2707 38.2928 45.622V46.4349C38.2928 46.5367 38.1512 46.5618 38.1161 46.4662C38.1094 46.4479 38.1087 46.4278 38.1144 46.4092C38.2873 45.8445 38.6301 45.3895 39.1428 45.044C39.6754 44.6927 40.2931 44.517 40.9958 44.517C41.7211 44.517 42.3558 44.6927 42.8998 45.044C43.4551 45.3953 43.8858 45.894 44.1918 46.54C44.4978 47.1747 44.6508 47.9397 44.6508 48.835C44.6508 49.719 44.4978 50.4897 44.1918 51.147C43.8858 51.793 43.4608 52.2917 42.9168 52.643C42.3728 52.9943 41.7324 53.17 40.9958 53.17C40.3044 53.17 39.6981 53 39.1768 52.66C38.6908 52.3325 38.3525 51.9163 38.162 51.4115C38.1414 51.357 38.1827 51.3 38.241 51.3C38.2884 51.3 38.3268 51.3384 38.3268 51.3858V55.125C38.3268 55.4763 38.2304 55.7427 38.0378 55.924C37.8564 56.1053 37.5958 56.196 37.2558 56.196ZM40.4008 51.555C40.8201 51.555 41.1884 51.453 41.5058 51.249C41.8231 51.045 42.0668 50.7447 42.2368 50.348C42.4181 49.94 42.5088 49.4357 42.5088 48.835C42.5088 47.9283 42.3161 47.254 41.9308 46.812C41.5454 46.3587 41.0354 46.132 40.4008 46.132C39.9814 46.132 39.6131 46.234 39.2958 46.438C38.9784 46.6307 38.7291 46.931 38.5478 47.339C38.3778 47.7357 38.2928 48.2343 38.2928 48.835C38.2928 49.7303 38.4854 50.4103 38.8708 50.875C39.2561 51.3283 39.7661 51.555 40.4008 51.555Z" fill="white"/>
<path d="M50.4921 53.17C49.5515 53.17 48.7411 52.9943 48.0611 52.643C47.3811 52.2917 46.8541 51.793 46.4801 51.147C46.1175 50.501 45.9361 49.736 45.9361 48.852C45.9361 47.9907 46.1118 47.237 46.4631 46.591C46.8258 45.945 47.3188 45.4407 47.9421 45.078C48.5768 44.704 49.2965 44.517 50.1011 44.517C50.6905 44.517 51.2175 44.6133 51.6821 44.806C52.1581 44.9987 52.5605 45.2763 52.8891 45.639C53.2291 46.0017 53.4841 46.4437 53.6541 46.965C53.8355 47.475 53.9261 48.053 53.9261 48.699C53.9261 48.903 53.8525 49.0617 53.7051 49.175C53.5691 49.277 53.3708 49.328 53.1101 49.328H48.2651C47.9271 49.328 47.6531 49.054 47.6531 48.716C47.6531 48.378 47.9271 48.104 48.2651 48.104H52.2352C52.3051 48.104 52.3389 48.1895 52.2879 48.2373C52.2387 48.2835 52.1574 48.2485 52.1549 48.1811C52.1387 47.7376 52.0604 47.3606 51.9201 47.05C51.7728 46.6987 51.5518 46.4323 51.2571 46.251C50.9738 46.0583 50.6168 45.962 50.1861 45.962C49.7101 45.962 49.3021 46.0753 48.9621 46.302C48.6335 46.5173 48.3785 46.829 48.1971 47.237C48.0271 47.6337 47.9421 48.1097 47.9421 48.665V48.784C47.9421 49.7133 48.1575 50.4103 48.5881 50.875C49.0301 51.3283 49.6761 51.555 50.5261 51.555C50.8208 51.555 51.1495 51.521 51.5121 51.453C51.8861 51.3737 52.2375 51.2433 52.5661 51.062C52.8041 50.926 53.0138 50.8693 53.1951 50.892C53.3765 50.9033 53.5181 50.9657 53.6201 51.079C53.7335 51.1923 53.8015 51.334 53.8241 51.504C53.8468 51.6627 53.8128 51.827 53.7221 51.997C53.6428 52.167 53.5011 52.3143 53.2971 52.439C52.9005 52.6883 52.4415 52.8753 51.9201 53C51.4101 53.1133 50.9341 53.17 50.4921 53.17Z" fill="white"/>
<path d="M61.576 53.17C60.25 53.17 59.128 52.9207 58.21 52.422C57.3033 51.9233 56.612 51.215 56.136 50.297C55.66 49.379 55.422 48.291 55.422 47.033C55.422 46.081 55.558 45.2253 55.83 44.466C56.1133 43.7067 56.5157 43.0607 57.037 42.528C57.5697 41.984 58.2157 41.5703 58.975 41.287C59.7343 40.9923 60.5957 40.845 61.559 40.845C62.1937 40.845 62.8283 40.9243 63.463 41.083C64.109 41.2303 64.7153 41.4853 65.282 41.848C65.4747 41.9727 65.5993 42.1257 65.656 42.307C65.724 42.4883 65.7353 42.6753 65.69 42.868C65.6447 43.0493 65.5597 43.208 65.435 43.344C65.3103 43.48 65.1517 43.565 64.959 43.599C64.7777 43.633 64.5737 43.5877 64.347 43.463C63.9163 43.2137 63.48 43.0323 63.038 42.919C62.596 42.8057 62.103 42.749 61.559 42.749C60.7203 42.749 60.012 42.919 59.434 43.259C58.856 43.5877 58.4197 44.0693 58.125 44.704C57.8417 45.3387 57.7 46.115 57.7 47.033C57.7 48.427 58.0343 49.4867 58.703 50.212C59.3717 50.9373 60.3633 51.3 61.678 51.3C62.1313 51.3 62.5903 51.2547 63.055 51.164C63.4053 51.0956 63.7492 51.008 64.0866 50.901C64.2114 50.8614 64.3284 50.9875 64.2758 51.1074C64.2109 51.2553 63.99 51.209 63.99 51.0475V48.7656C63.99 48.419 63.709 48.138 63.3624 48.138H62.12C61.8367 48.138 61.6157 48.0643 61.457 47.917C61.3097 47.7697 61.236 47.5713 61.236 47.322C61.236 47.0613 61.3097 46.863 61.457 46.727C61.6157 46.591 61.8367 46.523 62.12 46.523H64.925C65.2083 46.523 65.4237 46.6023 65.571 46.761C65.7297 46.9083 65.809 47.1237 65.809 47.407V51.538C65.809 51.7873 65.758 51.997 65.656 52.167C65.5653 52.337 65.4123 52.4617 65.197 52.541C64.6983 52.7223 64.126 52.8753 63.48 53C62.834 53.1133 62.1993 53.17 61.576 53.17Z" fill="white"/>
<path d="M74.0936 53.17C72.7676 53.17 71.6456 52.9207 70.7276 52.422C69.8209 51.9233 69.1296 51.215 68.6536 50.297C68.1776 49.379 67.9396 48.291 67.9396 47.033C67.9396 46.081 68.0756 45.2253 68.3476 44.466C68.6309 43.7067 69.0332 43.0607 69.5546 42.528C70.0872 41.984 70.7332 41.5703 71.4926 41.287C72.2519 40.9923 73.1132 40.845 74.0766 40.845C74.7112 40.845 75.3459 40.9243 75.9806 41.083C76.6266 41.2303 77.2329 41.4853 77.7996 41.848C77.9922 41.9727 78.1169 42.1257 78.1736 42.307C78.2416 42.4883 78.2529 42.6753 78.2076 42.868C78.1622 43.0493 78.0772 43.208 77.9526 43.344C77.8279 43.48 77.6692 43.565 77.4766 43.599C77.2952 43.633 77.0912 43.5877 76.8646 43.463C76.4339 43.2137 75.9976 43.0323 75.5556 42.919C75.1136 42.8057 74.6206 42.749 74.0766 42.749C73.2379 42.749 72.5296 42.919 71.9516 43.259C71.3736 43.5877 70.9372 44.0693 70.6426 44.704C70.3592 45.3387 70.2176 46.115 70.2176 47.033C70.2176 48.427 70.5519 49.4867 71.2206 50.212C71.8892 50.9373 72.8809 51.3 74.1956 51.3C74.6489 51.3 75.1079 51.2547 75.5726 51.164C75.9229 51.0956 76.2668 51.008 76.6042 50.901C76.729 50.8614 76.8459 50.9875 76.7933 51.1074C76.7285 51.2553 76.5076 51.209 76.5076 51.0475V48.7656C76.5076 48.419 76.2266 48.138 75.88 48.138H74.6376C74.3542 48.138 74.1332 48.0643 73.9746 47.917C73.8272 47.7697 73.7536 47.5713 73.7536 47.322C73.7536 47.0613 73.8272 46.863 73.9746 46.727C74.1332 46.591 74.3542 46.523 74.6376 46.523H77.4426C77.7259 46.523 77.9412 46.6023 78.0886 46.761C78.2472 46.9083 78.3266 47.1237 78.3266 47.407V51.538C78.3266 51.7873 78.2756 51.997 78.1736 52.167C78.0829 52.337 77.9299 52.4617 77.7146 52.541C77.2159 52.7223 76.6436 52.8753 75.9976 53C75.3516 53.1133 74.7169 53.17 74.0936 53.17Z" fill="white"/>
<defs>
<filter id="filter0_i_133_473" x="6.10352e-05" y="4.66325" width="87.3034" height="87.7511" filterUnits="userSpaceOnUse" color-interpolation-filters="sRGB">
<feFlood flood-opacity="0" result="BackgroundImageFix"/>
<feBlend mode="normal" in="SourceGraphic" in2="BackgroundImageFix" result="shape"/>
<feColorMatrix in="SourceAlpha" type="matrix" values="0 0 0 0 0 0 0 0 0 0 0 0 0 0 0 0 0 0 127 0" result="hardAlpha"/>
<feOffset dy="2"/>
<feGaussianBlur stdDeviation="1"/>
<feComposite in2="hardAlpha" operator="arithmetic" k2="-1" k3="1"/>
<feColorMatrix type="matrix" values="0 0 0 0 0 0 0 0 0 0 0 0 0 0 0 0 0 0 0.25 0"/>
<feBlend mode="normal" in2="shape" result="effect1_innerShadow_133_473"/>
</filter>
<filter id="filter1_i_133_473" x="11.6943" y="63.6999" width="22.6034" height="24.6914" filterUnits="userSpaceOnUse" color-interpolation-filters="sRGB">
<feFlood flood-opacity="0" result="BackgroundImageFix"/>
<feBlend mode="normal" in="SourceGraphic" in2="BackgroundImageFix" result="shape"/>
<feColorMatrix in="SourceAlpha" type="matrix" values="0 0 0 0 0 0 0 0 0 0 0 0 0 0 0 0 0 0 127 0" result="hardAlpha"/>
<feOffset dy="2"/>
<feGaussianBlur stdDeviation="1"/>
<feComposite in2="hardAlpha" operator="arithmetic" k2="-1" k3="1"/>
<feColorMatrix type="matrix" values="0 0 0 0 0 0 0 0 0 0 0 0 0 0 0 0 0 0 0.25 0"/>
<feBlend mode="normal" in2="shape" result="effect1_innerShadow_133_473"/>
</filter>
<filter id="filter2_i_133_473" x="62.2106" y="15.3049" width="22.6034" height="24.6914" filterUnits="userSpaceOnUse" color-interpolation-filters="sRGB">
<feFlood flood-opacity="0" result="BackgroundImageFix"/>
<feBlend mode="normal" in="SourceGraphic" in2="BackgroundImageFix" result="shape"/>
<feColorMatrix in="SourceAlpha" type="matrix" values="0 0 0 0 0 0 0 0 0 0 0 0 0 0 0 0 0 0 127 0" result="hardAlpha"/>
<feOffset dy="2"/>
<feGaussianBlur stdDeviation="1"/>
<feComposite in2="hardAlpha" operator="arithmetic" k2="-1" k3="1"/>
<feColorMatrix type="matrix" values="0 0 0 0 0 0 0 0 0 0 0 0 0 0 0 0 0 0 0.25 0"/>
<feBlend mode="normal" in2="shape" result="effect1_innerShadow_133_473"/>
</filter>
<filter id="filter3_i_133_473" x="78.2271" y="71.3763" width="15.8936" height="17.9457" filterUnits="userSpaceOnUse" color-interpolation-filters="sRGB">
<feFlood flood-opacity="0" result="BackgroundImageFix"/>
<feBlend mode="normal" in="SourceGraphic" in2="BackgroundImageFix" result="shape"/>
<feColorMatrix in="SourceAlpha" type="matrix" values="0 0 0 0 0 0 0 0 0 0 0 0 0 0 0 0 0 0 127 0" result="hardAlpha"/>
<feOffset dy="2"/>
<feGaussianBlur stdDeviation="1"/>
<feComposite in2="hardAlpha" operator="arithmetic" k2="-1" k3="1"/>
<feColorMatrix type="matrix" values="0 0 0 0 0 0 0 0 0 0 0 0 0 0 0 0 0 0 0.25 0"/>
<feBlend mode="normal" in2="shape" result="effect1_innerShadow_133_473"/>
</filter>
<filter id="filter4_i_133_473" x="56.3292" y="64.3167" width="25.6928" height="27.7973" filterUnits="userSpaceOnUse" color-interpolation-filters="sRGB">
<feFlood flood-opacity="0" result="BackgroundImageFix"/>
<feBlend mode="normal" in="SourceGraphic" in2="BackgroundImageFix" result="shape"/>
<feColorMatrix in="SourceAlpha" type="matrix" values="0 0 0 0 0 0 0 0 0 0 0 0 0 0 0 0 0 0 127 0" result="hardAlpha"/>
<feOffset dy="2"/>
<feGaussianBlur stdDeviation="1"/>
<feComposite in2="hardAlpha" operator="arithmetic" k2="-1" k3="1"/>
<feColorMatrix type="matrix" values="0 0 0 0 0 0 0 0 0 0 0 0 0 0 0 0 0 0 0.25 0"/>
<feBlend mode="normal" in2="shape" result="effect1_innerShadow_133_473"/>
</filter>
<filter id="filter5_i_133_473" x="81.434" y="89.526" width="7.44539" height="9.44539" filterUnits="userSpaceOnUse" color-interpolation-filters="sRGB">
<feFlood flood-opacity="0" result="BackgroundImageFix"/>
<feBlend mode="normal" in="SourceGraphic" in2="BackgroundImageFix" result="shape"/>
<feColorMatrix in="SourceAlpha" type="matrix" values="0 0 0 0 0 0 0 0 0 0 0 0 0 0 0 0 0 0 127 0" result="hardAlpha"/>
<feOffset dy="2"/>
<feGaussianBlur stdDeviation="1"/>
<feComposite in2="hardAlpha" operator="arithmetic" k2="-1" k3="1"/>
<feColorMatrix type="matrix" values="0 0 0 0 0 0 0 0 0 0 0 0 0 0 0 0 0 0 0.25 0"/>
<feBlend mode="normal" in2="shape" result="effect1_innerShadow_133_473"/>
</filter>
<filter id="filter6_i_133_473" x="59.0978" y="89.526" width="7.44539" height="9.44539" filterUnits="userSpaceOnUse" color-interpolation-filters="sRGB">
<feFlood flood-opacity="0" result="BackgroundImageFix"/>
<feBlend mode="normal" in="SourceGraphic" in2="BackgroundImageFix" result="shape"/>
<feColorMatrix in="SourceAlpha" type="matrix" values="0 0 0 0 0 0 0 0 0 0 0 0 0 0 0 0 0 0 127 0" result="hardAlpha"/>
<feOffset dy="2"/>
<feGaussianBlur stdDeviation="1"/>
<feComposite in2="hardAlpha" operator="arithmetic" k2="-1" k3="1"/>
<feColorMatrix type="matrix" values="0 0 0 0 0 0 0 0 0 0 0 0 0 0 0 0 0 0 0.25 0"/>
<feBlend mode="normal" in2="shape" result="effect1_innerShadow_133_473"/>
</filter>
<filter id="filter7_i_133_473" x="55.3751" y="8.55738" width="7.44539" height="9.44539" filterUnits="userSpaceOnUse" color-interpolation-filters="sRGB">
<feFlood flood-opacity="0" result="BackgroundImageFix"/>
<feBlend mode="normal" in="SourceGraphic" in2="BackgroundImageFix" result="shape"/>
<feColorMatrix in="SourceAlpha" type="matrix" values="0 0 0 0 0 0 0 0 0 0 0 0 0 0 0 0 0 0 127 0" result="hardAlpha"/>
<feOffset dy="2"/>
<feGaussianBlur stdDeviation="1"/>
<feComposite in2="hardAlpha" operator="arithmetic" k2="-1" k3="1"/>
<feColorMatrix type="matrix" values="0 0 0 0 0 0 0 0 0 0 0 0 0 0 0 0 0 0 0.25 0"/>
<feBlend mode="normal" in2="shape" result="effect1_innerShadow_133_473"/>
</filter>
<radialGradient id="paint0_diamond_133_473" cx="0" cy="0" r="1" gradientUnits="userSpaceOnUse" gradientTransform="translate(32.3527 92.2616) rotate(-82.8038) scale(93.8063 94.8149)">
<stop stop-color="#70FFD4"/>
<stop offset="0.541667" stop-color="#7165FF"/>
<stop offset="1" stop-color="#476EF7"/>
</radialGradient>
</defs>
</svg>
