<svg width="580" height="648" viewBox="0 0 580 648" fill="none" xmlns="http://www.w3.org/2000/svg">
<g filter="url(#filter0_i_49_669)">
<path d="M314.446 573.649C306.928 568.637 297.609 567.124 288.892 569.502C278.13 572.437 266.62 569.412 258.691 561.566L5.8967 311.405C2.1232 307.671 -2.54802e-05 302.582 -2.59443e-05 297.274C-2.66924e-05 288.716 5.47574 281.119 13.594 278.413L13.9488 278.295C21.0394 275.931 28.8548 277.634 34.3188 282.734L59.186 305.944C64.4103 310.82 72.1154 311.934 78.5073 308.738C82.565 306.709 85.6505 303.152 87.0852 298.848L87.1879 298.54C89.234 292.401 87.8061 285.636 83.4535 280.849L38.8874 231.826C35.7025 228.322 33.9378 223.758 33.9378 219.023C33.9378 210.103 40.1334 202.379 48.8414 200.444L49.2373 200.356C55.5848 198.945 62.2181 200.785 66.9324 205.264L110.33 246.491C113.882 249.866 118.783 251.43 123.634 250.737C130.788 249.715 136.373 244.032 137.27 236.861L137.492 235.084C138.18 229.58 136.343 224.059 132.495 220.064L45.6615 129.898C41.7735 125.861 39.9656 120.256 40.7619 114.708C42.0463 105.759 49.7126 99.1142 58.7533 99.1142L60.0819 99.1142C65.0891 99.1142 69.9086 101.02 73.5615 104.445L150.19 176.283C154.753 180.562 161.889 180.447 166.312 176.023C169.982 172.353 170.765 166.69 168.227 162.162L162.909 152.672C157.321 142.699 158.915 130.244 166.834 121.999L167.85 120.942C170.902 117.765 174.774 115.494 179.036 114.382C187.088 112.282 195.652 114.526 201.638 120.306L206.241 124.75C212.798 131.082 223.099 131.433 230.098 125.595C236.688 120.097 238.432 110.655 234.209 103.184C232.701 100.516 231.909 97.5038 231.909 94.4394L231.909 87.3273C231.909 80.6848 235.662 74.6125 241.603 71.6419C246.217 69.335 251.612 69.1764 256.353 71.2084L262.866 73.9996C266.703 75.644 270.191 78.0055 273.143 80.9574L387.457 195.271L526.087 333.902C529.605 337.42 531.208 342.42 530.39 347.327C529.452 352.956 525.479 357.605 520.066 359.409L515 361.098C507.71 363.528 499.7 362.362 493.404 357.956L481.636 349.718C477.543 346.853 472.336 346.095 467.596 347.675C461.831 349.597 457.681 354.658 456.928 360.688L456.546 363.741C455.778 369.884 457.805 376.047 462.069 380.535L504.215 424.9C507.331 428.18 509.068 432.531 509.068 437.055C509.068 445.955 502.441 453.462 493.609 454.566L491.863 454.784C488.317 455.227 484.717 454.695 481.45 453.243L471.72 448.918C465.095 445.974 457.395 446.845 451.595 451.195C450.321 452.151 448.937 452.951 447.473 453.578L446.699 453.91C436.54 458.263 424.755 455.994 416.94 448.179L368.468 399.707C360.744 391.982 347.537 395.792 345.113 406.444C342.877 416.267 331.252 420.514 323.21 414.445L306.703 401.986C304.048 399.982 300.814 398.899 297.488 398.899C287.125 398.899 279.762 408.987 282.921 418.857L284.264 423.053C285.174 425.895 286.758 428.476 288.881 430.574L302.613 444.149L330.193 469.891C338.873 477.992 340.788 491.024 334.805 501.28C329.131 511.007 330.533 523.308 338.251 531.508L361.02 555.7C366.77 561.809 368.351 570.746 365.046 578.458L364.896 578.809C363.028 583.166 359.677 586.72 355.438 588.84C349.005 592.056 341.342 591.579 335.358 587.59L314.446 573.649Z" fill="url(#paint0_diamond_49_669)"/>
</g>
<g filter="url(#filter1_i_49_669)">
<rect x="189.696" y="574.244" width="179.18" height="37.3662" rx="18.6831" transform="rotate(-134.847 189.696 574.244)" fill="#7165FF"/>
</g>
<g filter="url(#filter2_i_49_669)">
<rect x="496.716" y="280.116" width="179.18" height="37.3662" rx="18.6831" transform="rotate(-134.847 496.716 280.116)" fill="#FF6581"/>
</g>
<g filter="url(#filter3_i_49_669)">
<rect x="553.279" y="579.901" width="121.354" height="37.3662" rx="18.6831" transform="rotate(-134.847 553.279 579.901)" fill="#7165FF"/>
</g>
<g filter="url(#filter4_i_49_669)">
<rect x="479.747" y="596.869" width="205.804" height="37.3662" rx="18.6831" transform="rotate(-134.847 479.747 596.869)" fill="#FF6581"/>
</g>
<g filter="url(#filter5_i_49_669)">
<circle cx="517.552" cy="608.182" r="22.6252" transform="rotate(180 517.552 608.182)" fill="#7165FF"/>
</g>
<g filter="url(#filter6_i_49_669)">
<circle cx="381.801" cy="608.182" r="22.6252" transform="rotate(180 381.801 608.182)" fill="#FA878D"/>
</g>
<g filter="url(#filter7_i_49_669)">
<circle cx="359.176" cy="116.083" r="22.6252" transform="rotate(180 359.176 116.083)" fill="#FA878D"/>
</g>
<path d="M337.568 126.429C337.568 126.429 312.875 129.638 304.926 119.29C298.193 110.525 310.761 98.671 302.733 91.0746C294.273 83.0684 281.581 99.684 272.917 91.8973C264.479 84.3123 275.918 72.6315 269.925 62.9972C260.499 47.8463 235.131 66.6444 225.705 51.4935C219.712 41.8591 229.553 31.6461 222.713 22.5934C215.573 13.1448 194.259 12.1055 194.259 12.1055" stroke="white" stroke-width="2"/>
<path d="M199.562 503.635C199.562 503.635 224.459 504.022 230.833 515.408C236.231 525.052 222.084 534.97 228.932 543.645C236.149 552.788 251.105 538.177 258.555 547.132C265.811 555.854 252.806 565.763 257.347 576.161C264.489 592.513 292.303 577.571 299.445 593.923C303.986 604.321 292.774 613.008 298.237 622.953C303.939 633.332 324.881 637.435 324.881 637.435" stroke="white" stroke-width="2"/>
<g filter="url(#filter8_f_49_669)">
<path d="M130.999 331.484C128.79 331.484 127 329.694 127 327.485V292.975C127 290.274 129.19 288.084 131.891 288.084C133.59 288.084 135.168 288.966 136.058 290.414L149.253 311.888C149.766 312.723 149.156 313.796 148.176 313.783C147.208 313.769 146.626 312.703 147.138 311.881L160.598 290.282C161.45 288.915 162.947 288.084 164.557 288.084C167.134 288.084 169.222 290.172 169.222 292.749V327.485C169.222 329.694 167.432 331.484 165.223 331.484C163.014 331.484 161.224 329.694 161.224 327.485V315.178C161.224 311.458 161.307 308.11 161.472 305.134C161.62 302.998 161.833 300.873 162.109 298.758C162.196 298.088 163.106 297.992 163.341 298.625C163.413 298.82 163.39 299.036 163.277 299.21L151.107 317.998C150.418 319.062 149.237 319.704 147.969 319.704C146.687 319.704 145.495 319.047 144.809 317.964L133.044 299.363C132.946 299.209 132.921 299.019 132.974 298.845C133.167 298.209 134.063 298.274 134.148 298.933C134.395 300.858 134.575 302.822 134.688 304.824C134.895 307.717 134.998 311.169 134.998 315.178V327.485C134.998 329.694 133.208 331.484 130.999 331.484Z" fill="white"/>
<path d="M196.077 332.104C192.646 332.104 189.608 331.381 186.963 329.934C184.359 328.487 182.313 326.524 180.825 324.044C179.378 321.523 178.655 318.65 178.655 315.426C178.655 312.863 179.068 310.528 179.895 308.42C180.721 306.312 181.858 304.493 183.305 302.964C184.793 301.393 186.549 300.195 188.575 299.368C190.641 298.5 192.894 298.066 195.333 298.066C197.482 298.066 199.487 298.479 201.347 299.306C203.207 300.133 204.819 301.269 206.183 302.716C207.547 304.121 208.58 305.816 209.283 307.8C210.027 309.743 210.378 311.871 210.337 314.186C210.302 315.668 209.091 316.852 207.608 316.852H185.788C184.614 316.852 183.586 316.067 183.276 314.936C182.822 313.279 184.069 311.644 185.788 311.644H203.196C203.458 311.644 203.594 311.957 203.414 312.148C203.228 312.346 202.897 312.214 202.897 311.943V311.334C202.773 310.053 202.359 308.937 201.657 307.986C200.954 306.994 200.045 306.229 198.929 305.692C197.854 305.113 196.655 304.824 195.333 304.824C193.307 304.824 191.592 305.217 190.187 306.002C188.823 306.787 187.789 307.924 187.087 309.412C186.384 310.859 186.033 312.677 186.033 314.868C186.033 316.976 186.467 318.815 187.335 320.386C188.244 321.957 189.505 323.176 191.117 324.044C192.77 324.871 194.692 325.284 196.883 325.284C198.412 325.284 199.817 325.036 201.099 324.54C201.502 324.384 201.915 324.189 202.338 323.956C204.026 323.024 206.22 323.223 207.345 324.789C208.31 326.134 208.137 328.018 206.744 328.915C206.25 329.233 205.732 329.532 205.191 329.81C203.785 330.513 202.297 331.071 200.727 331.484C199.156 331.897 197.606 332.104 196.077 332.104Z" fill="white"/>
<path d="M222.051 331.484C219.928 331.484 218.207 329.763 218.207 327.64V302.596C218.207 300.505 219.902 298.81 221.993 298.81C224.057 298.81 225.74 300.462 225.779 302.525L225.827 305.062C225.83 305.254 225.714 305.429 225.535 305.501C225.166 305.649 224.806 305.298 224.975 304.938C225.314 304.219 225.745 303.54 226.267 302.902C227.011 301.951 227.899 301.145 228.933 300.484C229.966 299.781 231.061 299.244 232.219 298.872C233.376 298.459 234.554 298.252 235.753 298.252C237.53 298.252 239.101 298.541 240.465 299.12C241.87 299.657 243.027 300.525 243.937 301.724C244.776 302.782 245.422 304.098 245.875 305.671C245.96 305.966 245.697 306.239 245.396 306.175C245.128 306.119 244.986 305.825 245.109 305.58L245.363 305.072C245.817 304.08 246.458 303.191 247.285 302.406C248.111 301.579 249.041 300.856 250.075 300.236C251.108 299.575 252.183 299.079 253.299 298.748C254.456 298.417 255.593 298.252 256.709 298.252C259.189 298.252 261.255 298.748 262.909 299.74C264.562 300.732 265.802 302.241 266.629 304.266C267.455 306.291 267.869 308.792 267.869 311.768V327.64C267.869 329.763 266.148 331.484 264.025 331.484C261.902 331.484 260.181 329.763 260.181 327.64V312.264C260.181 310.611 259.953 309.247 259.499 308.172C259.085 307.097 258.424 306.312 257.515 305.816C256.647 305.279 255.551 305.01 254.229 305.01C253.195 305.01 252.203 305.196 251.253 305.568C250.343 305.899 249.558 306.395 248.897 307.056C248.235 307.676 247.719 308.399 247.347 309.226C246.975 310.053 246.789 310.962 246.789 311.954V327.64C246.789 329.763 245.068 331.484 242.945 331.484C240.822 331.484 239.101 329.763 239.101 327.64V312.202C239.101 310.631 238.873 309.329 238.419 308.296C237.964 307.221 237.303 306.415 236.435 305.878C235.567 305.299 234.513 305.01 233.273 305.01C232.239 305.01 231.268 305.196 230.359 305.568C229.449 305.899 228.664 306.374 228.003 306.994C227.341 307.614 226.825 308.337 226.453 309.164C226.081 309.991 225.895 310.9 225.895 311.892V327.64C225.895 329.763 224.174 331.484 222.051 331.484Z" fill="white"/>
<path d="M292.517 332.104C289.251 332.104 286.337 331.381 283.775 329.934C281.212 328.446 279.187 326.421 277.699 323.858C276.211 321.295 275.467 318.381 275.467 315.116C275.467 311.851 276.211 308.937 277.699 306.374C279.187 303.811 281.212 301.807 283.775 300.36C286.337 298.872 289.251 298.128 292.517 298.128C295.741 298.128 298.634 298.872 301.197 300.36C303.759 301.807 305.764 303.811 307.211 306.374C308.699 308.937 309.443 311.851 309.443 315.116C309.443 318.381 308.699 321.295 307.211 323.858C305.764 326.421 303.759 328.446 301.197 329.934C298.634 331.381 295.741 332.104 292.517 332.104ZM292.517 325.346C294.294 325.346 295.865 324.891 297.229 323.982C298.634 323.073 299.729 321.853 300.515 320.324C301.341 318.795 301.734 317.059 301.693 315.116C301.734 313.132 301.341 311.375 300.515 309.846C299.729 308.317 298.634 307.118 297.229 306.25C295.865 305.341 294.294 304.886 292.517 304.886C290.739 304.886 289.127 305.341 287.681 306.25C286.275 307.118 285.18 308.337 284.395 309.908C283.609 311.437 283.217 313.173 283.217 315.116C283.217 317.059 283.609 318.795 284.395 320.324C285.18 321.853 286.275 323.073 287.681 323.982C289.127 324.891 290.739 325.346 292.517 325.346Z" fill="white"/>
<path d="M321.348 331.484C319.225 331.484 317.504 329.763 317.504 327.64V302.583C317.504 300.499 319.194 298.81 321.278 298.81H323.235C324.217 298.81 325.016 299.599 325.027 300.581L325.102 306.824C325.108 307.364 324.37 307.526 324.149 307.033C324.102 306.928 324.093 306.809 324.125 306.698C324.586 305.113 325.355 303.683 326.432 302.406C327.548 301.083 328.83 300.05 330.276 299.306C331.764 298.521 333.314 298.128 334.926 298.128C335.629 298.128 336.29 298.19 336.91 298.314C337.853 298.491 338.353 299.44 338.125 300.372L336.901 305.379C336.687 306.257 335.679 306.717 334.802 306.498C334.141 306.333 333.48 306.25 332.818 306.25C331.785 306.25 330.793 306.457 329.842 306.87C328.933 307.242 328.127 307.779 327.424 308.482C326.722 309.185 326.164 310.011 325.75 310.962C325.378 311.871 325.192 312.905 325.192 314.062V327.64C325.192 329.763 323.471 331.484 321.348 331.484Z" fill="white"/>
<path d="M349.521 331.484C347.415 331.484 345.708 329.777 345.708 327.671V302.623C345.708 300.517 347.415 298.81 349.521 298.81C351.627 298.81 353.334 300.517 353.334 302.623V327.671C353.334 329.777 351.627 331.484 349.521 331.484ZM349.428 291.866C347.899 291.866 346.7 291.494 345.832 290.75C345.005 289.965 344.592 288.869 344.592 287.464C344.592 286.141 345.026 285.067 345.894 284.24C346.762 283.413 347.94 283 349.428 283C350.999 283 352.197 283.393 353.024 284.178C353.892 284.922 354.326 286.017 354.326 287.464C354.326 288.745 353.892 289.799 353.024 290.626C352.156 291.453 350.957 291.866 349.428 291.866Z" fill="white"/>
<path d="M379.558 332.104C376.127 332.104 373.089 331.381 370.444 329.934C367.84 328.487 365.794 326.524 364.306 324.044C362.859 321.523 362.136 318.65 362.136 315.426C362.136 312.863 362.549 310.528 363.376 308.42C364.203 306.312 365.339 304.493 366.786 302.964C368.274 301.393 370.031 300.195 372.056 299.368C374.123 298.5 376.375 298.066 378.814 298.066C380.963 298.066 382.968 298.479 384.828 299.306C386.688 300.133 388.3 301.269 389.664 302.716C391.028 304.121 392.061 305.816 392.764 307.8C393.508 309.743 393.859 311.871 393.818 314.186C393.783 315.668 392.572 316.852 391.089 316.852H369.269C368.095 316.852 367.067 316.067 366.757 314.936C366.304 313.279 367.551 311.644 369.269 311.644H386.677C386.94 311.644 387.075 311.957 386.895 312.148C386.709 312.346 386.378 312.214 386.378 311.943V311.334C386.254 310.053 385.841 308.937 385.138 307.986C384.435 306.994 383.526 306.229 382.41 305.692C381.335 305.113 380.137 304.824 378.814 304.824C376.789 304.824 375.073 305.217 373.668 306.002C372.304 306.787 371.271 307.924 370.568 309.412C369.865 310.859 369.514 312.677 369.514 314.868C369.514 316.976 369.948 318.815 370.816 320.386C371.725 321.957 372.986 323.176 374.598 324.044C376.251 324.871 378.173 325.284 380.364 325.284C381.893 325.284 383.299 325.036 384.58 324.54C384.983 324.384 385.396 324.189 385.819 323.956C387.507 323.024 389.702 323.223 390.826 324.789C391.791 326.134 391.618 328.018 390.226 328.915C389.731 329.233 389.213 329.532 388.672 329.81C387.267 330.513 385.779 331.071 384.208 331.484C382.637 331.897 381.087 332.104 379.558 332.104Z" fill="white"/>
<path d="M412.724 332.104C409.831 332.104 407.227 331.629 404.912 330.678C403.696 330.147 402.598 329.498 401.618 328.731C400.199 327.619 400.411 325.531 401.777 324.353C403.17 323.151 405.24 323.364 406.788 324.36C407.32 324.702 407.873 324.99 408.446 325.222C409.975 325.842 411.587 326.152 413.282 326.152C413.985 326.152 414.605 326.069 415.142 325.904C415.721 325.739 416.217 325.491 416.63 325.16C417.043 324.829 417.353 324.457 417.56 324.044C417.808 323.589 417.932 323.093 417.932 322.556C417.932 321.564 417.56 320.779 416.816 320.2C416.403 319.911 415.741 319.601 414.832 319.27C413.964 318.939 412.827 318.609 411.422 318.278C409.19 317.699 407.33 317.038 405.842 316.294C404.354 315.509 403.197 314.641 402.37 313.69C401.667 312.905 401.13 312.016 400.758 311.024C400.427 310.032 400.262 308.957 400.262 307.8C400.262 306.353 400.572 305.051 401.192 303.894C401.853 302.695 402.742 301.662 403.858 300.794C404.974 299.926 406.276 299.265 407.764 298.81C409.252 298.355 410.802 298.128 412.414 298.128C414.067 298.128 415.659 298.335 417.188 298.748C418.759 299.161 420.205 299.761 421.528 300.546C421.978 300.791 422.405 301.055 422.81 301.336C424.18 302.288 424.152 304.209 423.031 305.446L422.987 305.494C421.778 306.827 419.717 306.876 418.18 305.94C417.271 305.361 416.341 304.907 415.39 304.576C414.439 304.204 413.551 304.018 412.724 304.018C411.939 304.018 411.236 304.101 410.616 304.266C409.996 304.39 409.479 304.597 409.066 304.886C408.653 305.175 408.322 305.547 408.074 306.002C407.867 306.415 407.764 306.911 407.764 307.49C407.805 307.986 407.929 308.461 408.136 308.916C408.384 309.329 408.715 309.681 409.128 309.97C409.583 310.259 410.265 310.59 411.174 310.962C412.083 311.334 413.261 311.685 414.708 312.016C416.733 312.553 418.428 313.153 419.792 313.814C421.156 314.475 422.231 315.24 423.016 316.108C423.801 316.852 424.359 317.72 424.69 318.712C425.021 319.704 425.186 320.799 425.186 321.998C425.186 323.941 424.628 325.677 423.512 327.206C422.437 328.735 420.949 329.934 419.048 330.802C417.188 331.67 415.08 332.104 412.724 332.104Z" fill="white"/>
</g>
<path d="M130.999 331.484C128.79 331.484 127 329.694 127 327.485V292.975C127 290.274 129.19 288.084 131.891 288.084C133.59 288.084 135.168 288.966 136.058 290.414L149.253 311.888C149.766 312.723 149.156 313.796 148.176 313.783C147.208 313.769 146.626 312.703 147.138 311.881L160.598 290.282C161.45 288.915 162.947 288.084 164.557 288.084C167.134 288.084 169.222 290.172 169.222 292.749V327.485C169.222 329.694 167.432 331.484 165.223 331.484C163.014 331.484 161.224 329.694 161.224 327.485V315.178C161.224 311.458 161.307 308.11 161.472 305.134C161.62 302.998 161.833 300.873 162.109 298.758C162.196 298.088 163.106 297.992 163.341 298.625C163.413 298.82 163.39 299.036 163.277 299.21L151.107 317.998C150.418 319.062 149.237 319.704 147.969 319.704C146.687 319.704 145.495 319.047 144.809 317.964L133.044 299.363C132.946 299.209 132.921 299.019 132.974 298.845C133.167 298.209 134.063 298.274 134.148 298.933C134.395 300.858 134.575 302.822 134.688 304.824C134.895 307.717 134.998 311.169 134.998 315.178V327.485C134.998 329.694 133.208 331.484 130.999 331.484Z" fill="white"/>
<path d="M196.077 332.104C192.646 332.104 189.608 331.381 186.963 329.934C184.359 328.487 182.313 326.524 180.825 324.044C179.378 321.523 178.655 318.65 178.655 315.426C178.655 312.863 179.068 310.528 179.895 308.42C180.721 306.312 181.858 304.493 183.305 302.964C184.793 301.393 186.549 300.195 188.575 299.368C190.641 298.5 192.894 298.066 195.333 298.066C197.482 298.066 199.487 298.479 201.347 299.306C203.207 300.133 204.819 301.269 206.183 302.716C207.547 304.121 208.58 305.816 209.283 307.8C210.027 309.743 210.378 311.871 210.337 314.186C210.302 315.668 209.091 316.852 207.608 316.852H185.788C184.614 316.852 183.586 316.067 183.276 314.936C182.822 313.279 184.069 311.644 185.788 311.644H203.196C203.458 311.644 203.594 311.957 203.414 312.148C203.228 312.346 202.897 312.214 202.897 311.943V311.334C202.773 310.053 202.359 308.937 201.657 307.986C200.954 306.994 200.045 306.229 198.929 305.692C197.854 305.113 196.655 304.824 195.333 304.824C193.307 304.824 191.592 305.217 190.187 306.002C188.823 306.787 187.789 307.924 187.087 309.412C186.384 310.859 186.033 312.677 186.033 314.868C186.033 316.976 186.467 318.815 187.335 320.386C188.244 321.957 189.505 323.176 191.117 324.044C192.77 324.871 194.692 325.284 196.883 325.284C198.412 325.284 199.817 325.036 201.099 324.54C201.502 324.384 201.915 324.189 202.338 323.956C204.026 323.024 206.22 323.223 207.345 324.789C208.31 326.134 208.137 328.018 206.744 328.915C206.25 329.233 205.732 329.532 205.191 329.81C203.785 330.513 202.297 331.071 200.727 331.484C199.156 331.897 197.606 332.104 196.077 332.104Z" fill="white"/>
<path d="M222.051 331.484C219.928 331.484 218.207 329.763 218.207 327.64V302.596C218.207 300.505 219.902 298.81 221.993 298.81C224.057 298.81 225.74 300.462 225.779 302.525L225.827 305.062C225.83 305.254 225.714 305.429 225.535 305.501C225.166 305.649 224.806 305.298 224.975 304.938C225.314 304.219 225.745 303.54 226.267 302.902C227.011 301.951 227.899 301.145 228.933 300.484C229.966 299.781 231.062 299.244 232.219 298.872C233.376 298.459 234.554 298.252 235.753 298.252C237.53 298.252 239.101 298.541 240.465 299.12C241.87 299.657 243.028 300.525 243.937 301.724C244.776 302.782 245.422 304.098 245.875 305.671C245.96 305.966 245.697 306.239 245.396 306.175C245.128 306.119 244.986 305.825 245.109 305.58L245.363 305.072C245.817 304.08 246.458 303.191 247.285 302.406C248.112 301.579 249.042 300.856 250.075 300.236C251.108 299.575 252.183 299.079 253.299 298.748C254.456 298.417 255.593 298.252 256.709 298.252C259.189 298.252 261.255 298.748 262.909 299.74C264.562 300.732 265.802 302.241 266.629 304.266C267.456 306.291 267.869 308.792 267.869 311.768V327.64C267.869 329.763 266.148 331.484 264.025 331.484C261.902 331.484 260.181 329.763 260.181 327.64V312.264C260.181 310.611 259.954 309.247 259.499 308.172C259.086 307.097 258.424 306.312 257.515 305.816C256.647 305.279 255.551 305.01 254.229 305.01C253.196 305.01 252.204 305.196 251.253 305.568C250.344 305.899 249.558 306.395 248.897 307.056C248.235 307.676 247.719 308.399 247.347 309.226C246.975 310.053 246.789 310.962 246.789 311.954V327.64C246.789 329.763 245.068 331.484 242.945 331.484C240.822 331.484 239.101 329.763 239.101 327.64V312.202C239.101 310.631 238.873 309.329 238.419 308.296C237.964 307.221 237.303 306.415 236.435 305.878C235.567 305.299 234.513 305.01 233.273 305.01C232.24 305.01 231.268 305.196 230.359 305.568C229.45 305.899 228.664 306.374 228.003 306.994C227.341 307.614 226.825 308.337 226.453 309.164C226.081 309.991 225.895 310.9 225.895 311.892V327.64C225.895 329.763 224.174 331.484 222.051 331.484Z" fill="white"/>
<path d="M292.517 332.104C289.251 332.104 286.337 331.381 283.775 329.934C281.212 328.446 279.187 326.421 277.699 323.858C276.211 321.295 275.467 318.381 275.467 315.116C275.467 311.851 276.211 308.937 277.699 306.374C279.187 303.811 281.212 301.807 283.775 300.36C286.337 298.872 289.251 298.128 292.517 298.128C295.741 298.128 298.634 298.872 301.197 300.36C303.759 301.807 305.764 303.811 307.211 306.374C308.699 308.937 309.443 311.851 309.443 315.116C309.443 318.381 308.699 321.295 307.211 323.858C305.764 326.421 303.759 328.446 301.197 329.934C298.634 331.381 295.741 332.104 292.517 332.104ZM292.517 325.346C294.294 325.346 295.865 324.891 297.229 323.982C298.634 323.073 299.729 321.853 300.515 320.324C301.341 318.795 301.734 317.059 301.693 315.116C301.734 313.132 301.341 311.375 300.515 309.846C299.729 308.317 298.634 307.118 297.229 306.25C295.865 305.341 294.294 304.886 292.517 304.886C290.739 304.886 289.127 305.341 287.681 306.25C286.275 307.118 285.18 308.337 284.395 309.908C283.609 311.437 283.217 313.173 283.217 315.116C283.217 317.059 283.609 318.795 284.395 320.324C285.18 321.853 286.275 323.073 287.681 323.982C289.127 324.891 290.739 325.346 292.517 325.346Z" fill="white"/>
<path d="M321.348 331.484C319.225 331.484 317.504 329.763 317.504 327.64V302.583C317.504 300.499 319.194 298.81 321.278 298.81H323.235C324.217 298.81 325.016 299.599 325.027 300.581L325.102 306.824C325.108 307.364 324.37 307.526 324.149 307.033C324.102 306.928 324.093 306.809 324.125 306.698C324.586 305.113 325.355 303.683 326.432 302.406C327.548 301.083 328.83 300.05 330.276 299.306C331.764 298.521 333.314 298.128 334.926 298.128C335.629 298.128 336.29 298.19 336.91 298.314C337.853 298.491 338.353 299.44 338.125 300.372L336.901 305.379C336.687 306.257 335.679 306.717 334.802 306.498C334.141 306.333 333.48 306.25 332.818 306.25C331.785 306.25 330.793 306.457 329.842 306.87C328.933 307.242 328.127 307.779 327.424 308.482C326.722 309.185 326.164 310.011 325.75 310.962C325.378 311.871 325.192 312.905 325.192 314.062V327.64C325.192 329.763 323.471 331.484 321.348 331.484Z" fill="white"/>
<path d="M349.521 331.484C347.415 331.484 345.708 329.777 345.708 327.671V302.623C345.708 300.517 347.415 298.81 349.521 298.81C351.627 298.81 353.334 300.517 353.334 302.623V327.671C353.334 329.777 351.627 331.484 349.521 331.484ZM349.428 291.866C347.899 291.866 346.7 291.494 345.832 290.75C345.005 289.965 344.592 288.869 344.592 287.464C344.592 286.141 345.026 285.067 345.894 284.24C346.762 283.413 347.94 283 349.428 283C350.999 283 352.197 283.393 353.024 284.178C353.892 284.922 354.326 286.017 354.326 287.464C354.326 288.745 353.892 289.799 353.024 290.626C352.156 291.453 350.957 291.866 349.428 291.866Z" fill="white"/>
<path d="M379.558 332.104C376.127 332.104 373.089 331.381 370.444 329.934C367.84 328.487 365.794 326.524 364.306 324.044C362.859 321.523 362.136 318.65 362.136 315.426C362.136 312.863 362.549 310.528 363.376 308.42C364.203 306.312 365.339 304.493 366.786 302.964C368.274 301.393 370.031 300.195 372.056 299.368C374.123 298.5 376.375 298.066 378.814 298.066C380.963 298.066 382.968 298.479 384.828 299.306C386.688 300.133 388.3 301.269 389.664 302.716C391.028 304.121 392.061 305.816 392.764 307.8C393.508 309.743 393.859 311.871 393.818 314.186C393.783 315.668 392.572 316.852 391.089 316.852H369.269C368.096 316.852 367.067 316.067 366.757 314.936C366.304 313.279 367.551 311.644 369.269 311.644H386.677C386.94 311.644 387.075 311.957 386.895 312.148C386.709 312.346 386.378 312.214 386.378 311.943V311.334C386.254 310.053 385.841 308.937 385.138 307.986C384.435 306.994 383.526 306.229 382.41 305.692C381.335 305.113 380.137 304.824 378.814 304.824C376.789 304.824 375.073 305.217 373.668 306.002C372.304 306.787 371.271 307.924 370.568 309.412C369.865 310.859 369.514 312.677 369.514 314.868C369.514 316.976 369.948 318.815 370.816 320.386C371.725 321.957 372.986 323.176 374.598 324.044C376.251 324.871 378.173 325.284 380.364 325.284C381.893 325.284 383.299 325.036 384.58 324.54C384.983 324.384 385.396 324.189 385.819 323.956C387.507 323.024 389.702 323.223 390.826 324.789C391.791 326.134 391.618 328.018 390.226 328.915C389.731 329.233 389.213 329.532 388.672 329.81C387.267 330.513 385.779 331.071 384.208 331.484C382.637 331.897 381.087 332.104 379.558 332.104Z" fill="white"/>
<path d="M412.724 332.104C409.831 332.104 407.227 331.629 404.912 330.678C403.696 330.147 402.598 329.498 401.618 328.731C400.199 327.619 400.411 325.531 401.777 324.353C403.17 323.151 405.24 323.364 406.788 324.36C407.32 324.702 407.873 324.99 408.446 325.222C409.975 325.842 411.587 326.152 413.282 326.152C413.985 326.152 414.605 326.069 415.142 325.904C415.721 325.739 416.217 325.491 416.63 325.16C417.043 324.829 417.353 324.457 417.56 324.044C417.808 323.589 417.932 323.093 417.932 322.556C417.932 321.564 417.56 320.779 416.816 320.2C416.403 319.911 415.741 319.601 414.832 319.27C413.964 318.939 412.827 318.609 411.422 318.278C409.19 317.699 407.33 317.038 405.842 316.294C404.354 315.509 403.197 314.641 402.37 313.69C401.667 312.905 401.13 312.016 400.758 311.024C400.427 310.032 400.262 308.957 400.262 307.8C400.262 306.353 400.572 305.051 401.192 303.894C401.853 302.695 402.742 301.662 403.858 300.794C404.974 299.926 406.276 299.265 407.764 298.81C409.252 298.355 410.802 298.128 412.414 298.128C414.067 298.128 415.659 298.335 417.188 298.748C418.759 299.161 420.205 299.761 421.528 300.546C421.978 300.791 422.405 301.055 422.81 301.336C424.18 302.288 424.152 304.209 423.031 305.446L422.987 305.494C421.778 306.827 419.717 306.876 418.18 305.94C417.271 305.361 416.341 304.907 415.39 304.576C414.439 304.204 413.551 304.018 412.724 304.018C411.939 304.018 411.236 304.101 410.616 304.266C409.996 304.39 409.479 304.597 409.066 304.886C408.653 305.175 408.322 305.547 408.074 306.002C407.867 306.415 407.764 306.911 407.764 307.49C407.805 307.986 407.929 308.461 408.136 308.916C408.384 309.329 408.715 309.681 409.128 309.97C409.583 310.259 410.265 310.59 411.174 310.962C412.083 311.334 413.261 311.685 414.708 312.016C416.733 312.553 418.428 313.153 419.792 313.814C421.156 314.475 422.231 315.24 423.016 316.108C423.801 316.852 424.359 317.72 424.69 318.712C425.021 319.704 425.186 320.799 425.186 321.998C425.186 323.941 424.628 325.677 423.512 327.206C422.437 328.735 420.949 329.934 419.048 330.802C417.188 331.67 415.08 332.104 412.724 332.104Z" fill="white"/>
<defs>
<filter id="filter0_i_49_669" x="-2.67029e-05" y="69.7905" width="530.6" height="523.165" filterUnits="userSpaceOnUse" color-interpolation-filters="sRGB">
<feFlood flood-opacity="0" result="BackgroundImageFix"/>
<feBlend mode="normal" in="SourceGraphic" in2="BackgroundImageFix" result="shape"/>
<feColorMatrix in="SourceAlpha" type="matrix" values="0 0 0 0 0 0 0 0 0 0 0 0 0 0 0 0 0 0 127 0" result="hardAlpha"/>
<feOffset dy="2"/>
<feGaussianBlur stdDeviation="1"/>
<feComposite in2="hardAlpha" operator="arithmetic" k2="-1" k3="1"/>
<feColorMatrix type="matrix" values="0 0 0 0 0 0 0 0 0 0 0 0 0 0 0 0 0 0 0.25 0"/>
<feBlend mode="normal" in2="shape" result="effect1_innerShadow_49_669"/>
</filter>
<filter id="filter1_i_49_669" x="71.0735" y="428.595" width="137.376" height="139.911" filterUnits="userSpaceOnUse" color-interpolation-filters="sRGB">
<feFlood flood-opacity="0" result="BackgroundImageFix"/>
<feBlend mode="normal" in="SourceGraphic" in2="BackgroundImageFix" result="shape"/>
<feColorMatrix in="SourceAlpha" type="matrix" values="0 0 0 0 0 0 0 0 0 0 0 0 0 0 0 0 0 0 127 0" result="hardAlpha"/>
<feOffset dy="2"/>
<feGaussianBlur stdDeviation="1"/>
<feComposite in2="hardAlpha" operator="arithmetic" k2="-1" k3="1"/>
<feColorMatrix type="matrix" values="0 0 0 0 0 0 0 0 0 0 0 0 0 0 0 0 0 0 0.25 0"/>
<feBlend mode="normal" in2="shape" result="effect1_innerShadow_49_669"/>
</filter>
<filter id="filter2_i_49_669" x="378.094" y="134.467" width="137.376" height="139.911" filterUnits="userSpaceOnUse" color-interpolation-filters="sRGB">
<feFlood flood-opacity="0" result="BackgroundImageFix"/>
<feBlend mode="normal" in="SourceGraphic" in2="BackgroundImageFix" result="shape"/>
<feColorMatrix in="SourceAlpha" type="matrix" values="0 0 0 0 0 0 0 0 0 0 0 0 0 0 0 0 0 0 127 0" result="hardAlpha"/>
<feOffset dy="2"/>
<feGaussianBlur stdDeviation="1"/>
<feComposite in2="hardAlpha" operator="arithmetic" k2="-1" k3="1"/>
<feColorMatrix type="matrix" values="0 0 0 0 0 0 0 0 0 0 0 0 0 0 0 0 0 0 0.25 0"/>
<feBlend mode="normal" in2="shape" result="effect1_innerShadow_49_669"/>
</filter>
<filter id="filter3_i_49_669" x="475.437" y="475.249" width="96.5959" height="98.9127" filterUnits="userSpaceOnUse" color-interpolation-filters="sRGB">
<feFlood flood-opacity="0" result="BackgroundImageFix"/>
<feBlend mode="normal" in="SourceGraphic" in2="BackgroundImageFix" result="shape"/>
<feColorMatrix in="SourceAlpha" type="matrix" values="0 0 0 0 0 0 0 0 0 0 0 0 0 0 0 0 0 0 127 0" result="hardAlpha"/>
<feOffset dy="2"/>
<feGaussianBlur stdDeviation="1"/>
<feComposite in2="hardAlpha" operator="arithmetic" k2="-1" k3="1"/>
<feColorMatrix type="matrix" values="0 0 0 0 0 0 0 0 0 0 0 0 0 0 0 0 0 0 0.25 0"/>
<feBlend mode="normal" in2="shape" result="effect1_innerShadow_49_669"/>
</filter>
<filter id="filter4_i_49_669" x="342.349" y="432.344" width="156.152" height="158.787" filterUnits="userSpaceOnUse" color-interpolation-filters="sRGB">
<feFlood flood-opacity="0" result="BackgroundImageFix"/>
<feBlend mode="normal" in="SourceGraphic" in2="BackgroundImageFix" result="shape"/>
<feColorMatrix in="SourceAlpha" type="matrix" values="0 0 0 0 0 0 0 0 0 0 0 0 0 0 0 0 0 0 127 0" result="hardAlpha"/>
<feOffset dy="2"/>
<feGaussianBlur stdDeviation="1"/>
<feComposite in2="hardAlpha" operator="arithmetic" k2="-1" k3="1"/>
<feColorMatrix type="matrix" values="0 0 0 0 0 0 0 0 0 0 0 0 0 0 0 0 0 0 0.25 0"/>
<feBlend mode="normal" in2="shape" result="effect1_innerShadow_49_669"/>
</filter>
<filter id="filter5_i_49_669" x="494.927" y="585.557" width="45.2505" height="47.2505" filterUnits="userSpaceOnUse" color-interpolation-filters="sRGB">
<feFlood flood-opacity="0" result="BackgroundImageFix"/>
<feBlend mode="normal" in="SourceGraphic" in2="BackgroundImageFix" result="shape"/>
<feColorMatrix in="SourceAlpha" type="matrix" values="0 0 0 0 0 0 0 0 0 0 0 0 0 0 0 0 0 0 127 0" result="hardAlpha"/>
<feOffset dy="2"/>
<feGaussianBlur stdDeviation="1"/>
<feComposite in2="hardAlpha" operator="arithmetic" k2="-1" k3="1"/>
<feColorMatrix type="matrix" values="0 0 0 0 0 0 0 0 0 0 0 0 0 0 0 0 0 0 0.25 0"/>
<feBlend mode="normal" in2="shape" result="effect1_innerShadow_49_669"/>
</filter>
<filter id="filter6_i_49_669" x="359.175" y="585.557" width="45.2505" height="47.2505" filterUnits="userSpaceOnUse" color-interpolation-filters="sRGB">
<feFlood flood-opacity="0" result="BackgroundImageFix"/>
<feBlend mode="normal" in="SourceGraphic" in2="BackgroundImageFix" result="shape"/>
<feColorMatrix in="SourceAlpha" type="matrix" values="0 0 0 0 0 0 0 0 0 0 0 0 0 0 0 0 0 0 127 0" result="hardAlpha"/>
<feOffset dy="2"/>
<feGaussianBlur stdDeviation="1"/>
<feComposite in2="hardAlpha" operator="arithmetic" k2="-1" k3="1"/>
<feColorMatrix type="matrix" values="0 0 0 0 0 0 0 0 0 0 0 0 0 0 0 0 0 0 0.25 0"/>
<feBlend mode="normal" in2="shape" result="effect1_innerShadow_49_669"/>
</filter>
<filter id="filter7_i_49_669" x="336.55" y="93.4577" width="45.2505" height="47.2505" filterUnits="userSpaceOnUse" color-interpolation-filters="sRGB">
<feFlood flood-opacity="0" result="BackgroundImageFix"/>
<feBlend mode="normal" in="SourceGraphic" in2="BackgroundImageFix" result="shape"/>
<feColorMatrix in="SourceAlpha" type="matrix" values="0 0 0 0 0 0 0 0 0 0 0 0 0 0 0 0 0 0 127 0" result="hardAlpha"/>
<feOffset dy="2"/>
<feGaussianBlur stdDeviation="1"/>
<feComposite in2="hardAlpha" operator="arithmetic" k2="-1" k3="1"/>
<feColorMatrix type="matrix" values="0 0 0 0 0 0 0 0 0 0 0 0 0 0 0 0 0 0 0.25 0"/>
<feBlend mode="normal" in2="shape" result="effect1_innerShadow_49_669"/>
</filter>
<filter id="filter8_f_49_669" x="123" y="279" width="306.186" height="57.104" filterUnits="userSpaceOnUse" color-interpolation-filters="sRGB">
<feFlood flood-opacity="0" result="BackgroundImageFix"/>
<feBlend mode="normal" in="SourceGraphic" in2="BackgroundImageFix" result="shape"/>
<feGaussianBlur stdDeviation="2" result="effect1_foregroundBlur_49_669"/>
</filter>
<radialGradient id="paint0_diamond_49_669" cx="0" cy="0" r="1" gradientUnits="userSpaceOnUse" gradientTransform="translate(196.628 602.183) rotate(-82.8038) scale(570.122 576.252)">
<stop stop-color="#70FFD4"/>
<stop offset="0.541667" stop-color="#7165FF"/>
<stop offset="1" stop-color="#476EF7"/>
</radialGradient>
</defs>
</svg>
